<?xml version="1.0" encoding="UTF-8" standalone="no"?>
<!-- Created with Inkscape (http://www.inkscape.org/) -->

<svg
   xmlns:dc="http://purl.org/dc/elements/1.1/"
   xmlns:cc="http://creativecommons.org/ns#"
   xmlns:rdf="http://www.w3.org/1999/02/22-rdf-syntax-ns#"
   xmlns:svg="http://www.w3.org/2000/svg"
   xmlns="http://www.w3.org/2000/svg"
   xmlns:sodipodi="http://sodipodi.sourceforge.net/DTD/sodipodi-0.dtd"
   xmlns:inkscape="http://www.inkscape.org/namespaces/inkscape"
   width="14.809908mm"
   height="22.301062mm"
   viewBox="0 0 52.476054 79.019513"
   id="svg3362"
   version="1.1"
   inkscape:version="0.91 r13725"
   sodipodi:docname="mf copy.svg"
   inkscape:export-filename="\\Mac\Home\GitHub\Model-MF\mfDrop.png"
   inkscape:export-xdpi="499.5"
   inkscape:export-ydpi="499.5">
  <defs
     id="defs3364" />
  <sodipodi:namedview
     id="base"
     pagecolor="#ffffff"
     bordercolor="#666666"
     borderopacity="1.0"
     inkscape:pageopacity="0.0"
     inkscape:pageshadow="2"
     inkscape:zoom="2"
     inkscape:cx="-4.7733895"
     inkscape:cy="26.406037"
     inkscape:document-units="px"
     inkscape:current-layer="layer1"
     showgrid="false"
     fit-margin-top="0"
     fit-margin-left="0"
     fit-margin-right="0"
     fit-margin-bottom="0"
     inkscape:window-width="1440"
     inkscape:window-height="772"
     inkscape:window-x="-8"
     inkscape:window-y="-8"
     inkscape:window-maximized="1"
     showguides="false" />
  <metadata
     id="metadata3367">
    <rdf:RDF>
      <cc:Work
         rdf:about="">
        <dc:format>image/svg+xml</dc:format>
        <dc:type
           rdf:resource="http://purl.org/dc/dcmitype/StillImage" />
        <dc:title />
      </cc:Work>
    </rdf:RDF>
  </metadata>
  <g
     inkscape:label="Drop"
     inkscape:groupmode="layer"
     id="layer1"
     transform="translate(-154.16748,-474.44095)">
    <path
       style="opacity:1;fill:#000000;fill-opacity:0.94117647;stroke:none;stroke-width:0.89999998;stroke-linecap:round;stroke-linejoin:round;stroke-miterlimit:4;stroke-dasharray:none;stroke-opacity:1"
       d="m 180.26082,474.44095 c 0,0 7.57171,13.15932 14.69885,25.42996 7.12713,12.27063 13.80969,23.65258 11.03138,34.09783 -2.78578,10.47333 -15.13517,19.57413 -26.02222,19.49116 -10.64047,-0.081 -22.46463,-9.18651 -25.13198,-19.43513 -2.71945,-10.44878 3.38654,-21.84474 10.4224,-34.1285 7.03585,-12.28376 15.00157,-25.45532 15.00157,-25.45532 z"
       id="rect4179"
       inkscape:connector-curvature="0"
       sodipodi:nodetypes="cssassc" />
    <path
       sodipodi:nodetypes="cssassc"
       inkscape:connector-curvature="0"
       id="path4184"
       d="m 180.21933,475.73682 c 0,0 7.58149,12.83262 14.4864,24.68228 6.9049,11.84967 13.13322,22.71639 10.42685,32.7846 -2.69661,10.03191 -14.63682,18.89646 -25.16541,18.81635 -10.29012,-0.0782 -21.7183,-8.94479 -24.30447,-18.76226 -2.65196,-10.06721 3.4872,-20.94746 10.28934,-32.8109 6.80215,-11.86343 14.26729,-24.71007 14.26729,-24.71007 z"
       style="opacity:1;fill:#d4e7ed;fill-opacity:1;stroke:none;stroke-width:0.89999998;stroke-linecap:round;stroke-linejoin:round;stroke-miterlimit:4;stroke-dasharray:none;stroke-opacity:1" />
    <path
       sodipodi:nodetypes="cssassc"
       inkscape:connector-curvature="0"
       id="path4202"
       d="m 180.24294,475.28445 c 0,0 7.22697,13.27885 13.69264,25.57998 6.46567,12.30112 12.70036,23.97971 9.65514,34.1341 -2.71846,9.0648 -14.02065,16.51576 -23.58836,16.43235 -9.50696,-0.0829 -20.54377,-7.87117 -23.15306,-16.73418 -2.99113,-10.16003 3.52019,-21.49676 9.89541,-33.80982 6.37522,-12.31306 13.49823,-25.60243 13.49823,-25.60243 z"
       style="opacity:0.92000002;fill:#7fdcff;fill-opacity:1;stroke:none;stroke-width:0.89999998;stroke-linecap:round;stroke-linejoin:round;stroke-miterlimit:4;stroke-dasharray:none;stroke-opacity:1" />
    <path
       style="opacity:1;fill:#ffffff;fill-opacity:1;stroke:none;stroke-width:0.89999998;stroke-linecap:round;stroke-linejoin:round;stroke-miterlimit:4;stroke-dasharray:none;stroke-opacity:1"
       d="m 179.78904,479.87829 c 0,0 -5.50621,9.53383 -11.16279,19.68602 -5.65658,10.15219 -10.88901,22.42533 -8.66205,30.90916 0.34403,1.31063 0.31661,1.09305 0.99999,2.3372 -0.46743,-0.96884 -0.26878,-0.45722 -0.53239,-1.46149 -2.22695,-8.48383 2.90604,-20.75697 8.46318,-30.90915 5.55714,-10.15219 10.96391,-19.68602 10.96391,-19.68602 l 6.58606,12.29862 -0.0587,-0.58079 -6.59716,-12.59355 z"
       id="path4218"
       inkscape:connector-curvature="0"
       sodipodi:nodetypes="csscssccccc" />
    <path
       style="opacity:0.65;fill:#1893ff;fill-opacity:1;stroke:none;stroke-width:0.89999998;stroke-linecap:round;stroke-linejoin:round;stroke-miterlimit:4;stroke-dasharray:none;stroke-opacity:1"
       d="m 180.24448,477.3201 c 0,0 -0.32812,0.4426 -0.44736,0.60322 0.35313,0.46167 4.89217,9.95226 10.55178,20.81065 5.65961,10.85839 12.43978,25.04722 10.20408,33.83482 -2.26,8.88312 -12.44238,16.12075 -21.26628,16.04982 -8.62404,-0.0694 -19.2236,-7.83373 -21.39104,-16.52696 -1.29785,-5.20544 1.12293,-15.11459 3.49326,-21.72037 -2.92326,7.59759 -5.43339,18.40188 -3.94248,24.38165 2.30733,9.25432 13.38637,15.81053 22.56704,15.88431 9.39343,0.0755 20.04769,-7.72608 22.45356,-17.18255 2.41458,-9.49069 -4.90883,-22.81064 -11.06811,-34.47162 -6.15929,-11.66097 -11.15445,-21.66297 -11.15445,-21.66297 z"
       id="path4190"
       inkscape:connector-curvature="0"
       sodipodi:nodetypes="ccsssscssssc" />
    <path
       inkscape:connector-curvature="0"
       id="path4421"
       d="m 184.55456,491.38466 c 0,0 3.58771,6.89684 7.45297,14.24186 3.86525,7.34501 8.25804,15.76321 6.36819,22.05593 -0.29196,0.97215 -0.72762,1.91815 -1.2589,2.82886 0.36761,-0.71137 0.6708,-1.44248 0.89451,-2.18738 1.88984,-6.29273 -2.54715,-14.71092 -6.4566,-22.05594 -3.90944,-7.34501 -8.04135,-11.61685 -8.04135,-11.61685 z"
       style="opacity:0.65;fill:#ffffff;fill-opacity:1;stroke:none;stroke-width:0.89999998;stroke-linecap:round;stroke-linejoin:round;stroke-miterlimit:4;stroke-dasharray:none;stroke-opacity:1"
       sodipodi:nodetypes="cssccscc" />
    <path
       style="display:inline;opacity:0.8;fill:#cbf8fd;fill-opacity:0.78625955;stroke:none;stroke-width:0.89999998;stroke-linecap:round;stroke-linejoin:round;stroke-miterlimit:4;stroke-dasharray:none;stroke-opacity:1"
       d="m 179.71711,480.84155 c 0,0 5.69372,11.6598 10.78765,22.46106 5.09394,10.80128 10.00589,21.05592 7.60673,29.97222 -2.14172,7.95955 -11.04607,14.50202 -18.58391,14.42879 -7.49,-0.0728 -16.18526,-6.91145 -18.24097,-14.69382 -2.35654,-8.92125 2.77335,-18.87572 7.79602,-29.68746 5.02267,-10.81175 10.63448,-22.48079 10.63448,-22.48079 z"
       id="path4772"
       inkscape:connector-curvature="0"
       sodipodi:nodetypes="cssassc" />
  </g>
  <g
     inkscape:groupmode="layer"
     id="layer8"
     inkscape:label="Drop Accent 2"
     style="display:inline">
    <path
       style="opacity:0.86000001;fill:#234b85;fill-opacity:1;stroke:none;stroke-width:0.89999998;stroke-linecap:round;stroke-linejoin:round;stroke-miterlimit:4;stroke-dasharray:none;stroke-opacity:1"
       d="m 26.53411,4.4550162 c 0.348075,0.4594865 5.377347,10.4711218 10.956157,21.2309738 5.57881,10.75985 11.625051,24.572478 9.421276,33.318533 -2.227729,8.841121 -12.008733,15.240106 -20.706663,15.169514 -4.78177,-0.03875 -9.61143,-0.742124 -13.52125,-4.452962 3.99172,4.094159 9.14188,5.122005 14.21819,5.163208 8.69793,0.07055 18.478912,-6.328396 20.706653,-15.169535 C 49.812253,50.968703 43.607192,36.959861 37.869559,26.003792 32.131925,15.047724 26.943825,4.8398715 26.59574,4.38039 M 7.15126,35.959204 C 4.26975,43.520876 2.93188,53.632596 4.4015,59.584105 5.32844,63.337902 9.3855401,69.277809 12.30146,72.237623 9.7244601,69.422205 5.95134,62.957925 5.09844,59.503964 4.54402,57.258769 4.16468,55.574617 4.38853,52.958405 4.23293,48.563544 5.35487,41.014007 7.15126,35.959204 Z"
       id="path4413"
       inkscape:connector-curvature="0"
       sodipodi:nodetypes="cssccsssccscscc" />
  </g>
  <g
     inkscape:groupmode="layer"
     id="layer7"
     inkscape:label="MF White"
     style="display:none">
    <g
       style="display:inline;opacity:1"
       transform="matrix(1.273032,0,0,1.2871066,-229.3313,-657.84453)"
       id="g4328">
      <path
         inkscape:connector-curvature="0"
         style="opacity:1;fill:#ffffff;fill-opacity:1"
         d="M 2.1992188,0 C 0.9804188,0 0,0.9804188 0,2.1992188 L 0,23.617188 c 0,1.218799 0.9804188,2.201171 2.1992188,2.201171 l 13.8144532,0 c 1.2188,0 2.201172,-0.982372 2.201172,-2.201171 l 0,-21.4179692 C 18.214844,0.9804188 17.232472,0 16.013672,0 L 2.1992188,0 Z m 0.5449218,2.3125 1.859375,0 c 0,0 0.2699219,7.813e-4 0.4199219,0.3007812 L 9.1640625,12.332031 13.244141,2.6132812 C 13.394141,2.3132813 13.664062,2.3125 13.664062,2.3125 l 1.859376,0 c 0,0 0.300781,7.813e-4 0.300781,0.3007812 l 0,20.4003908 c 0,0 -7.82e-4,0.298828 -0.300781,0.298828 l -1.230469,0 c 0,0 -0.298828,0.0012 -0.298828,-0.298828 l 0.15039,-18.5117189 -3.871093,9.6601559 c -0.12,0.27 -0.270079,0.300782 -0.3300786,0.300782 l -1.4394532,0 c -0.06,0 -0.239375,-0.03078 -0.359375,-0.300782 L 4.1542969,4.5019531 4.2734375,23.013672 c 0,0 0.00117,0.298828 -0.2988281,0.298828 l -1.2304688,0 c 0,0 -0.3007812,0.0012 -0.3007812,-0.298828 l 0,-20.4003908 c 0,0 7.812e-4,-0.3007812 0.3007812,-0.3007812 z"
         transform="translate(185.67053,537.62091)"
         id="path4330" />
      <text
         xml:space="preserve"
         style="font-style:normal;font-weight:normal;font-size:40px;line-height:125%;font-family:sans-serif;letter-spacing:0px;word-spacing:0px;opacity:1;fill:#ffffff;fill-opacity:1;stroke:none;stroke-width:1px;stroke-linecap:butt;stroke-linejoin:miter;stroke-opacity:1"
         x="203.27052"
         y="560.79156"
         id="text4332"
         sodipodi:linespacing="125%"><tspan
           sodipodi:role="line"
           id="tspan4334"
           x="203.27052"
           y="560.79156"
           style="font-style:normal;font-variant:normal;font-weight:normal;font-stretch:normal;font-size:30px;line-height:125%;font-family:Melbourne;-inkscape-font-specification:'Melbourne, Normal';text-align:start;writing-mode:lr-tb;text-anchor:start;fill:#ffffff;fill-opacity:1">F</tspan></text>
    </g>
  </g>
  <g
     inkscape:groupmode="layer"
     id="layer2"
     inkscape:label="MF"
     transform="translate(-154.16748,-474.44095)"
     style="display:inline">
    <g
       id="g4188"
       transform="matrix(1.2235033,0,0,1.2370303,-65.21767,-154.17742)"
       style="opacity:0.85;fill:#000000;fill-opacity:1">
      <path
         id="rect3378"
         transform="translate(185.67053,537.62091)"
         d="M 2.1992188,0 C 0.9804188,0 0,0.9804188 0,2.1992188 L 0,23.617188 c 0,1.218799 0.9804188,2.201171 2.1992188,2.201171 l 13.8144532,0 c 1.2188,0 2.201172,-0.982372 2.201172,-2.201171 l 0,-21.4179692 C 18.214844,0.9804188 17.232472,0 16.013672,0 L 2.1992188,0 Z m 0.5449218,2.3125 1.859375,0 c 0,0 0.2699219,7.813e-4 0.4199219,0.3007812 L 9.1640625,12.332031 13.244141,2.6132812 C 13.394141,2.3132813 13.664062,2.3125 13.664062,2.3125 l 1.859376,0 c 0,0 0.300781,7.813e-4 0.300781,0.3007812 l 0,20.4003908 c 0,0 -7.82e-4,0.298828 -0.300781,0.298828 l -1.230469,0 c 0,0 -0.298828,0.0012 -0.298828,-0.298828 l 0.15039,-18.5117189 -3.871093,9.6601559 c -0.12,0.27 -0.270079,0.300782 -0.3300786,0.300782 l -1.4394532,0 c -0.06,0 -0.239375,-0.03078 -0.359375,-0.300782 L 4.1542969,4.5019531 4.2734375,23.013672 c 0,0 0.00117,0.298828 -0.2988281,0.298828 l -1.2304688,0 c 0,0 -0.3007812,0.0012 -0.3007812,-0.298828 l 0,-20.4003908 c 0,0 7.812e-4,-0.3007812 0.3007812,-0.3007812 z"
         style="opacity:1;fill:#000000;fill-opacity:1"
         inkscape:connector-curvature="0" />
      <g
         style="font-style:normal;font-weight:normal;font-size:40px;line-height:125%;font-family:sans-serif;letter-spacing:0px;word-spacing:0px;opacity:1;fill:#000000;fill-opacity:1;stroke:none;stroke-width:1px;stroke-linecap:butt;stroke-linejoin:miter;stroke-opacity:1"
         id="text3383">
        <path
           d="m 207.50052,560.49156 0,-9.39 6.06,0 c 0.27,0 0.3,-0.27 0.3,-0.27 l 0,-1.2 c 0,0 0,-0.27 -0.3,-0.27 l -6.06,0 0,-7.83 8.16,0 c 0.27,0 0.3,-0.27 0.3,-0.27 l 0,-1.2 c 0,0 0,-0.27 -0.3,-0.27 l -9.99,0 0,20.7 c 0,0.3 0.3,0.3 0.3,0.3 l 1.23,0 c 0,0 0.27,0 0.3,-0.3 z"
           style="font-style:normal;font-variant:normal;font-weight:normal;font-stretch:normal;font-size:30px;line-height:125%;font-family:Melbourne;-inkscape-font-specification:'Melbourne, Normal';text-align:start;writing-mode:lr-tb;text-anchor:start;fill:#000000;fill-opacity:1"
           id="path4193"
           inkscape:connector-curvature="0" />
      </g>
    </g>
  </g>
  <g
     inkscape:groupmode="layer"
     id="layer5"
     inkscape:label="Drop Accents">
    <path
       style="display:inline;opacity:0.82;fill:#ffffff;fill-opacity:1;stroke:none;stroke-width:0.89999998;stroke-linecap:round;stroke-linejoin:round;stroke-miterlimit:4;stroke-dasharray:none;stroke-opacity:1"
       d="M 26.52092,32.316137 C 20.701593,32.036823 15.088855,34.800325 11.279666,39.820357 7.0616347,45.391153 5.6022489,53.014213 7.4010548,60.080177 6.2628197,53.521116 7.8364581,46.730128 11.66809,41.665917 18.559114,32.586056 30.6046,31.585585 38.578628,39.430787 l 0.03166,0.0314 c 2.778965,2.755373 4.488516,6.368189 5.505048,10.40241 -0.811813,-4.755812 -2.684426,-9.066499 -5.891607,-12.24797 l -0.03166,-0.0314 C 34.934535,34.379631 30.821524,32.522759 26.52092,32.316137 Z"
       id="path4196"
       inkscape:connector-curvature="0"
       sodipodi:nodetypes="cccccccccc" />
    <path
       style="opacity:0.77;fill:#ffffff;fill-opacity:1;stroke:none;stroke-width:0.89999998;stroke-linecap:round;stroke-linejoin:round;stroke-miterlimit:4;stroke-dasharray:none;stroke-opacity:1"
       d="m 39.990183,57.85929 a 16.367118,11.709812 5.271126 0 1 -4.296272,6.551458 16.367118,11.709812 5.271126 0 1 -20.874523,0.858857 14.558286,11.708205 6.1112057 0 0 0.688455,0.606122 14.558286,11.708205 6.1112057 0 0 20.533388,0.299682 14.558286,11.708205 6.1112057 0 0 3.948951,-8.316115 z"
       id="path4223"
       inkscape:connector-curvature="0" />
  </g>
  <g
     inkscape:groupmode="layer"
     id="layer3"
     inkscape:label="M"
     transform="translate(-154.16748,-474.44095)"
     style="display:none" />
  <g
     inkscape:groupmode="layer"
     id="layer4"
     inkscape:label="F"
     transform="translate(31.503023,62.16182)"
     style="display:none" />
  <flowRoot
     xml:space="preserve"
     id="flowRoot4176"
     style="font-style:normal;font-variant:normal;font-weight:normal;font-stretch:normal;font-size:5px;line-height:125%;font-family:Melbourne;-inkscape-font-specification:'Melbourne, Normal';text-align:start;letter-spacing:0px;word-spacing:0px;writing-mode:lr-tb;text-anchor:start;fill:#000000;fill-opacity:1;stroke:none;stroke-width:1px;stroke-linecap:butt;stroke-linejoin:miter;stroke-opacity:1"
     transform="translate(31.503024,63.179951)"><flowRegion
       id="flowRegion4178"><rect
         id="rect4180"
         width="42.558167"
         height="9.4686832"
         x="-1.7308345"
         y="29.584904" /></flowRegion><flowPara
       id="flowPara4182" /></flowRoot>  <g
     inkscape:groupmode="layer"
     id="layer6"
     inkscape:label="Objective"
     transform="translate(31.503025,63.179951)"
     style="display:none">
    <g
       style="font-style:normal;font-variant:normal;font-weight:600;font-stretch:normal;font-size:5px;line-height:125%;font-family:Choplin;-inkscape-font-specification:'Choplin, Semi-Bold';text-align:start;letter-spacing:0px;word-spacing:0px;writing-mode:lr-tb;text-anchor:start;fill:#000000;fill-opacity:1;stroke:none;stroke-width:1px;stroke-linecap:butt;stroke-linejoin:miter;stroke-opacity:1"
       id="text4140">
      <path
         d="m 2.2239905,27.674145 c -0.98,0 -1.6703005,0.739874 -1.6703005,1.719874 0,0.98 0.6903005,1.720126 1.6703005,1.720126 0.98,0 1.7196995,-0.740126 1.7196995,-1.720126 0,-0.98 -0.7396995,-1.719874 -1.7196995,-1.719874 z m 0.005,2.98 c -0.665,0 -1.2153005,-0.595126 -1.2153005,-1.260126 0,-0.665 0.5503005,-1.259874 1.2153005,-1.259874 0.66,0 1.2096995,0.594874 1.2096995,1.259874 0,0.665 -0.5496995,1.260126 -1.2096995,1.260126 z"
         style="font-style:normal;font-variant:normal;font-weight:600;font-stretch:normal;font-size:5px;line-height:125%;font-family:Choplin;-inkscape-font-specification:'Choplin, Semi-Bold';text-align:start;writing-mode:lr-tb;text-anchor:start;fill:#000000"
         id="path4177"
         inkscape:connector-curvature="0"
         sodipodi:nodetypes="ssssssssss" />
    </g>
    <g
       style="font-style:normal;font-variant:normal;font-weight:600;font-stretch:normal;font-size:5px;line-height:125%;font-family:Choplin;-inkscape-font-specification:'Choplin, Semi-Bold';text-align:start;letter-spacing:0px;word-spacing:0px;writing-mode:lr-tb;text-anchor:start;fill:#000000;fill-opacity:1;stroke:none;stroke-width:1px;stroke-linecap:butt;stroke-linejoin:miter;stroke-opacity:1"
       id="text4144">
      <path
         d="m 7.7129912,29.33409 c 0.31,-0.105 0.4546988,-0.405 0.4546988,-0.77 0,-0.525 -0.3646988,-0.819945 -1.0846988,-0.819945 l -1.7953012,0 0,0.43 0.43,0 0,2.44 -0.43,0 0,0.479945 1.8603012,0 c 0.755,0 1.1746988,-0.37 1.1746988,-0.94 0,-0.385 -0.1546988,-0.73 -0.6096988,-0.82 z M 6.21769,28.174145 l 0.8253012,0 c 0.4199999,-1e-6 0.6596988,0.209945 0.6596988,0.484945 0,0.285 -0.2404691,0.545481 -0.6596988,0.520055 l -0.8253012,0 z m 0,2.44 0,-0.995 0.9703012,0 c 0.39,0 0.6446988,0.194945 0.6446988,0.469945 0,0.265 -0.2553627,0.549354 -0.6996988,0.525055 z"
         style="font-style:normal;font-variant:normal;font-weight:600;font-stretch:normal;font-size:5px;line-height:125%;font-family:Choplin;-inkscape-font-specification:'Choplin, Semi-Bold';text-align:start;writing-mode:lr-tb;text-anchor:start;fill:#000000"
         id="path4183"
         inkscape:connector-curvature="0"
         sodipodi:nodetypes="cssccccccssccsssccccsssc" />
    </g>
    <g
       style="font-style:normal;font-variant:normal;font-weight:600;font-stretch:normal;font-size:5px;line-height:125%;font-family:Choplin;-inkscape-font-specification:'Choplin, Semi-Bold';text-align:start;letter-spacing:0px;word-spacing:0px;writing-mode:lr-tb;text-anchor:start;fill:#000000;fill-opacity:1;stroke:none;stroke-width:1px;stroke-linecap:butt;stroke-linejoin:miter;stroke-opacity:1"
       id="text4148">
      <path
         d="m 12.78669,28.136145 0,-0.43 -2.19,0 0,0.43 1.2,0 10e-4,1.645448 c 2.89e-4,0.475 -0.325,0.839552 -0.775,0.839552 -0.475,0 -0.811,-0.364552 -0.811,-0.849552 l -0.505,0 c 0,0.815 0.515,1.36 1.325,1.36 0.84,0 1.250398,-0.540374 1.275,-1.35 l 0,-1.645448 z"
         style="font-style:normal;font-variant:normal;font-weight:600;font-stretch:normal;font-size:5px;line-height:125%;font-family:Choplin;-inkscape-font-specification:'Choplin, Semi-Bold';text-align:start;writing-mode:lr-tb;text-anchor:start;fill:#000000"
         id="path4186"
         inkscape:connector-curvature="0"
         sodipodi:nodetypes="cccccssccsscc" />
    </g>
    <g
       style="font-style:normal;font-variant:normal;font-weight:600;font-stretch:normal;font-size:5px;line-height:125%;font-family:Choplin;-inkscape-font-specification:'Choplin, Semi-Bold';text-align:start;letter-spacing:0px;word-spacing:0px;writing-mode:lr-tb;text-anchor:start;fill:#000000;fill-opacity:1;stroke:none;stroke-width:1px;stroke-linecap:butt;stroke-linejoin:miter;stroke-opacity:1"
       id="text4152">
      <path
         d="m 17.35469,27.744145 -2.795,0 0,0.43 0.43,0 0,2.44 -0.43,0 0,0.43 2.795,0 0,-1.04 -0.44,0 0,0.585 -1.425,-5e-6 0,-0.945 1.144997,0 0,-0.455 -1.145,0 0,-1.015 1.425,0 0,0.61 0.44,0 z"
         style="font-style:normal;font-variant:normal;font-weight:600;font-stretch:normal;font-size:5px;line-height:125%;font-family:Choplin;-inkscape-font-specification:'Choplin, Semi-Bold';text-align:start;writing-mode:lr-tb;text-anchor:start;fill:#000000"
         id="path4189"
         inkscape:connector-curvature="0"
         sodipodi:nodetypes="ccccccccccccccccccccc" />
    </g>
    <g
       style="font-style:normal;font-variant:normal;font-weight:600;font-stretch:normal;font-size:5px;line-height:125%;font-family:Choplin;-inkscape-font-specification:'Choplin, Semi-Bold';text-align:start;letter-spacing:0px;word-spacing:0px;writing-mode:lr-tb;text-anchor:start;fill:#000000;fill-opacity:1;stroke:none;stroke-width:1px;stroke-linecap:butt;stroke-linejoin:miter;stroke-opacity:1"
       id="text4156">
      <path
         d="m 21.76469,29.824145 c -0.125,0.515 -0.595068,0.815 -1.120068,0.815 -0.665,0 -1.239932,-0.540055 -1.239932,-1.245055 0,-0.705 0.569932,-1.244945 1.234932,-1.244945 0.53,0 1.030068,0.3 1.160068,0.815 l 0.49,0 0,-1.22 -0.49,0 0,0.35 c -0.275,-0.275 -0.725068,-0.419995 -1.195068,-0.419995 -0.955,0 -1.729932,0.694945 -1.729932,1.719945 0,1.025 0.789932,1.720055 1.769932,1.720055 0.845,0 1.485068,-0.450005 1.640068,-1.290005 z"
         style="font-style:normal;font-variant:normal;font-weight:600;font-stretch:normal;font-size:5px;line-height:125%;font-family:Choplin;-inkscape-font-specification:'Choplin, Semi-Bold';text-align:start;writing-mode:lr-tb;text-anchor:start;fill:#000000"
         id="path4192"
         inkscape:connector-curvature="0"
         sodipodi:nodetypes="cssscccccssscc" />
    </g>
    <g
       style="font-style:normal;font-variant:normal;font-weight:600;font-stretch:normal;font-size:5px;line-height:125%;font-family:Choplin;-inkscape-font-specification:'Choplin, Semi-Bold';text-align:start;letter-spacing:0px;word-spacing:0px;writing-mode:lr-tb;text-anchor:start;fill:#000000;fill-opacity:1;stroke:none;stroke-width:1px;stroke-linecap:butt;stroke-linejoin:miter;stroke-opacity:1"
       id="text4160">
      <path
         d="m 26.93869,27.744145 -3.05,5e-6 0,1.039995 0.44,0 0,-0.585 0.835,0 0,2.415 -0.57,0 0,0.43 1.64,0 0,-0.43 -0.57,0 0,-2.415 0.835,0 0,0.585 0.44,0 z"
         style="font-style:normal;font-variant:normal;font-weight:600;font-stretch:normal;font-size:5px;line-height:125%;font-family:Choplin;-inkscape-font-specification:'Choplin, Semi-Bold';text-align:start;writing-mode:lr-tb;text-anchor:start;fill:#000000"
         id="path4195"
         inkscape:connector-curvature="0"
         sodipodi:nodetypes="ccccccccccccccccc" />
    </g>
    <g
       style="font-style:normal;font-variant:normal;font-weight:600;font-stretch:normal;font-size:5px;line-height:125%;font-family:Choplin;-inkscape-font-specification:'Choplin, Semi-Bold';text-align:start;letter-spacing:0px;word-spacing:0px;writing-mode:lr-tb;text-anchor:start;fill:#000000;fill-opacity:1;stroke:none;stroke-width:1px;stroke-linecap:butt;stroke-linejoin:miter;stroke-opacity:1"
       id="text4164">
      <path
         d="m 29.48669,28.174145 0.425,0 0,-0.43 -1.355,0 0,0.43 0.43,0 0,2.44 -0.43,0 0,0.43 1.355,0 0,-0.43 -0.425,0 z"
         style="font-style:normal;font-variant:normal;font-weight:600;font-stretch:normal;font-size:5px;line-height:125%;font-family:Choplin;-inkscape-font-specification:'Choplin, Semi-Bold';text-align:start;writing-mode:lr-tb;text-anchor:start;fill:#000000"
         id="path4198"
         inkscape:connector-curvature="0"
         sodipodi:nodetypes="ccccccccccccc" />
    </g>
    <g
       style="font-style:normal;font-variant:normal;font-weight:600;font-stretch:normal;font-size:5px;line-height:125%;font-family:Choplin;-inkscape-font-specification:'Choplin, Semi-Bold';text-align:start;letter-spacing:0px;word-spacing:0px;writing-mode:lr-tb;text-anchor:start;fill:#000000;fill-opacity:1;stroke:none;stroke-width:1px;stroke-linecap:butt;stroke-linejoin:miter;stroke-opacity:1"
       id="text4168">
      <path
         d="m 35.15569,28.161145 0,-0.43 -1.57,0 0,0.43 0.585,0 -1.015066,2.19 -1.014934,-2.19 0.585,0 0,-0.43 -1.57,0 0,0.43 0.4,0 1.365,2.89 0.47,0 1.365,-2.89 z"
         style="font-style:normal;font-variant:normal;font-weight:600;font-stretch:normal;font-size:5px;line-height:125%;font-family:Choplin;-inkscape-font-specification:'Choplin, Semi-Bold';text-align:start;writing-mode:lr-tb;text-anchor:start;fill:#000000"
         id="path4201"
         inkscape:connector-curvature="0"
         sodipodi:nodetypes="cccccccccccccccc" />
    </g>
    <g
       transform="translate(21.67,-1.4252872e-6)"
       style="font-style:normal;font-variant:normal;font-weight:600;font-stretch:normal;font-size:5px;line-height:125%;font-family:Choplin;-inkscape-font-specification:'Choplin, Semi-Bold';text-align:start;letter-spacing:0px;word-spacing:0px;writing-mode:lr-tb;text-anchor:start;fill:#000000;fill-opacity:1;stroke:none;stroke-width:1px;stroke-linecap:butt;stroke-linejoin:miter;stroke-opacity:1"
       id="text4152-6">
      <path
         d="m 17.35469,27.744145 -2.795,0 0,0.43 0.43,0 0,2.44 -0.43,0 0,0.43 2.795,0 0,-1.04 -0.44,0 0,0.585 -1.425,-5e-6 0,-0.945 1.144997,0 0,-0.455 -1.145,0 0,-1.015 1.425,0 0,0.61 0.44,0 z"
         style="font-style:normal;font-variant:normal;font-weight:600;font-stretch:normal;font-size:5px;line-height:125%;font-family:Choplin;-inkscape-font-specification:'Choplin, Semi-Bold';text-align:start;writing-mode:lr-tb;text-anchor:start;fill:#000000"
         id="path4189-7"
         inkscape:connector-curvature="0"
         sodipodi:nodetypes="ccccccccccccccccccccc" />
    </g>
  </g>
</svg>
